<?xml version="1.0" encoding="utf-8"?>
<!-- Generator: Adobe Illustrator 25.2.0, SVG Export Plug-In . SVG Version: 6.00 Build 0)  -->
<svg version="1.1" id="Layer_1" xmlns="http://www.w3.org/2000/svg" xmlns:xlink="http://www.w3.org/1999/xlink" x="0px" y="0px"
	 viewBox="0 0 300 180" style="enable-background:new 0 0 300 180;" xml:space="preserve">
<style type="text/css">
	.st0{fill:#BB2301;}
	.st1{fill:#C62C02;}
	.st2{fill:#E34800;}
	.st3{fill:#F89400;}
	.st4{fill:#EE6400;}
	.st5{fill:#DB3E00;}
	.st6{fill:#FFFFFF;}
</style>
<g>
	<g>
		<polygon class="st0" points="82.5,90 82.5,6.9 10.5,48.5 		"/>
		<polygon class="st1" points="154.4,48.5 82.5,6.9 82.5,90 		"/>
		<polygon class="st2" points="82.5,90 10.5,131.5 82.5,173.1 		"/>
		<polygon class="st3" points="82.5,173.1 154.4,131.5 82.5,90 		"/>
		<polygon class="st4" points="82.5,90 82.5,90 154.4,131.5 154.4,48.5 		"/>
		<polygon class="st5" points="10.5,48.5 10.5,131.5 82.5,90 		"/>
		<g>
			<path class="st6" d="M85.1,50l17.9,7.3L92.4,62c-5.3,2.3-14.9,1-27.4-4.1s-16-9.1-10.7-11.5l17.3-7.6c5.3-2.3,14.9-1,27.4,4.1
				s16,9.1,10.7,11.5l-3.2,1.4l-12.1-4.9l3.6-1.6c2.4-1,0.7-2.5-3.3-4.2c-4.1-1.7-7.5-2.3-9.9-1.3l-18,7.9c-2.4,1-0.7,2.5,3.4,4.1
				c4.1,1.7,7.5,2.3,9.9,1.3l6.1-2.7L80.4,52L85.1,50z"/>
		</g>
		<g>
			<path class="st6" d="M40.7,115.8l-10-35.4l8.5,4.8l6,23.7l6.4-16.6l7.8,4.4l-10.6,23.7L48.6,135l-8.1-4.6L40.7,115.8z"/>
		</g>
		<g>
			<path class="st6" d="M121.1,119.2l5.3-35.6l11.1-7.1l0.2,45.2l-7.5,4.8L130,94.1l-5.3,35.9l-7.5,4.8l-6.1-28.2l0.2,32l-7,4.4
				l-0.2-45.2l11.1-7.1L121.1,119.2z"/>
		</g>
	</g>
	<g>
		<g>
			<path class="st0" d="M195.1,126.2c-0.5,7.5-1.9,13.3-4.4,17.4c-2.5,4.1-5.8,6.1-9.9,6.1c-4.5,0-8.1-3-10.8-9s-4-14.1-4-24.2v-6.8
				c0-6.6,0.6-12.4,1.9-17.4c1.3-5,3-8.9,5.3-11.6s5-4,8-4c4,0,7.2,2.1,9.7,6.3c2.4,4.2,3.8,10.1,4.2,17.5h-5
				c-0.4-5.7-1.4-9.8-2.8-12.3c-1.4-2.5-3.5-3.8-6.1-3.8c-3.2,0-5.7,2.2-7.5,6.7c-1.8,4.4-2.7,10.7-2.7,18.9v6.9
				c0,7.7,0.9,13.9,2.6,18.4c1.7,4.6,4.1,6.8,7.2,6.8c2.8,0,4.9-1.2,6.4-3.5c1.5-2.4,2.5-6.5,3-12.3L195.1,126.2L195.1,126.2z"/>
			<path class="st0" d="M207,141.1h17.9v7.7h-23V77.6h5v63.5H207z"/>
			<path class="st0" d="M255.8,77.6V126c0,6.7-1.1,12.2-3.4,16.5c-2.2,4.3-5.2,6.7-9.1,7.2l-1.3,0.1c-4.1,0-7.4-2.1-9.9-6.3
				s-3.7-10-3.7-17.3V77.6h4.9v48.2c0,5.1,0.8,9.1,2.3,12c1.5,2.8,3.7,4.3,6.4,4.3c2.8,0,5-1.4,6.5-4.3c1.5-2.8,2.2-6.8,2.2-12V77.6
				H255.8z"/>
			<path class="st0" d="M263.7,148.8V77.6h12.4c4.1,0,7.2,1.6,9.3,4.8c2.1,3.2,3.1,7.9,3.1,14.2c0,3.3-0.5,6.3-1.5,8.8
				c-1,2.6-2.4,4.5-4.1,5.9c2,1.1,3.7,3.1,4.8,6.1c1.2,3,1.8,6.6,1.8,10.8c0,6.4-1.1,11.4-3.3,15c-2.2,3.6-5.3,5.5-9.3,5.5h-13.2
				V148.8z M268.7,108h7.5c2.2,0,3.9-1,5.2-3.1c1.3-2.1,2-4.8,2-8.4c0-3.9-0.6-6.8-1.8-8.5c-1.2-1.8-3.1-2.7-5.5-2.7h-7.4L268.7,108
				L268.7,108z M268.7,115.5v25.6h8.2c2.3,0,4.2-1.1,5.5-3.4c1.3-2.3,2-5.4,2-9.4c0-8.6-2.5-12.8-7.4-12.8L268.7,115.5L268.7,115.5z
				"/>
		</g>
		<g>
			<path class="st2" d="M178.5,49.4v2.3h-10v17.5H166V30.6h14.7v2.3h-12.1v16.5H178.5z"/>
			<path class="st2" d="M187,30.6v38.6h-2.5V30.6H187z"/>
			<path class="st2" d="M198.1,69.2V32.9h-7.9v-2.3h18.3v2.3h-7.8v36.3H198.1z"/>
			<path class="st2" d="M214.1,69.2h-2.3V30.6h3.3l11.6,32.6V30.6h2.3v38.6h-2.8l-12.1-34.4V69.2z"/>
			<path class="st2" d="M246.5,48.4v2.3H236v16.1h12.7v2.3h-15.2V30.6h15.2v2.3H236v15.6L246.5,48.4L246.5,48.4z"/>
			<path class="st2" d="M269,39.9v0.8h-2.4v-1c0-4.1-1.5-7.2-5.7-7.2s-5.7,3-5.7,7.1c0,9.4,14,9.5,14,20.2c0,5.6-2.4,9.7-8.3,9.7
				s-8.3-4.1-8.3-9.7v-2h2.4V60c0,4.1,1.6,7.1,5.8,7.1s5.8-3,5.8-7.1c0-9.3-14-9.4-14-20.2c0-5.8,2.5-9.5,8.2-9.6
				C266.7,30.2,269,34.3,269,39.9z"/>
			<path class="st2" d="M289.4,39.9v0.8H287v-1c0-4.1-1.5-7.2-5.7-7.2s-5.7,3-5.7,7.1c0,9.4,14,9.5,14,20.2c0,5.6-2.4,9.7-8.3,9.7
				s-8.3-4.1-8.3-9.7v-2h2.4V60c0,4.1,1.6,7.1,5.8,7.1s5.8-3,5.8-7.1c0-9.3-14-9.4-14-20.2c0-5.8,2.5-9.5,8.2-9.6
				C287.1,30.2,289.4,34.3,289.4,39.9z"/>
		</g>
	</g>
</g>
<g id="Layer_2_1_">
</g>
</svg>
