<?xml version="1.0" encoding="utf-8"?>
<!-- Generator: Adobe Illustrator 25.2.0, SVG Export Plug-In . SVG Version: 6.00 Build 0)  -->
<svg version="1.1" id="Layer_1" xmlns="http://www.w3.org/2000/svg" xmlns:xlink="http://www.w3.org/1999/xlink" x="0px" y="0px"
	 viewBox="0 0 300 300" style="enable-background:new 0 0 300 300;" xml:space="preserve">
<style type="text/css">
	.st0{fill:#BB2301;}
	.st1{fill:#C62C02;}
	.st2{fill:#E34800;}
	.st3{fill:#F89400;}
	.st4{fill:#EE6400;}
	.st5{fill:#DB3E00;}
	.st6{fill:#FFFFFF;}
</style>
<g>
	<polygon class="st0" points="150.1,150 150.1,5 24.5,77.6 	"/>
	<polygon class="st1" points="275.5,77.6 150.1,5 150.1,150 	"/>
	<polygon class="st2" points="150.1,150 24.5,222.4 150.1,295 	"/>
	<polygon class="st3" points="150.1,295 275.5,222.4 150.1,150 	"/>
	<polygon class="st4" points="150.1,150 150.1,150 275.5,222.4 275.5,77.6 	"/>
	<polygon class="st5" points="24.5,77.6 24.5,222.4 150.1,150 	"/>
	<g>
		<path class="st6" d="M154.6,80.2l31.2,12.7l-18.5,8.2c-9.2,4-26,1.7-47.8-7.2s-27.9-15.9-18.7-20.1l30.2-13.3
			c9.2-4,26-1.7,47.8,7.2s27.9,15.9,18.7,20.1l-5.6,2.4l-21.1-8.5l6.3-2.8c4.2-1.7,1.2-4.4-5.8-7.3c-7.2-3-13.1-4-17.3-2.3
			l-31.4,13.8c-4.2,1.7-1.2,4.4,5.9,7.2c7.2,3,13.1,4,17.3,2.3l10.6-4.7l-10.1-4.2L154.6,80.2z"/>
	</g>
	<g>
		<path class="st6" d="M77.2,195l-17.4-61.8l14.8,8.4L85,183l11.2-29l13.6,7.7L91.3,203l-0.3,25.5l-14.1-8L77.2,195z"/>
	</g>
	<g>
		<path class="st6" d="M217.4,201l9.2-62.1l19.4-12.4l0.3,78.9l-13.1,8.4l-0.3-56.5l-9.2,62.6l-13.1,8.4L200,179l0.3,55.8l-12.2,7.7
			l-0.3-78.9l19.4-12.4L217.4,201z"/>
	</g>
</g>
</svg>
